<svg id="Layer_1" height="512" viewBox="0 0 150 150" width="512" xmlns="http://www.w3.org/2000/svg" data-name="Layer 1"><circle cx="75" cy="75" fill="#45b39c" r="64"/><path d="m104.368 29c-10.283-.367-14.5 10.83-14.5 10.83a44.079 44.079 0 0 0 -6.422-.987c-4.281-.407-8.442-.48-8.442-.48s-4.161.073-8.442.48a44.079 44.079 0 0 0 -6.422.987s-4.221-11.2-14.5-10.83-11.571 7.521-9.551 18.9c.434 2.441.8 4.361 1.114 5.915 1.14 5.7 1.574 6.529 2.007 10.423.547 4.955-4.961 17.438 4.955 28.635s14.684 15.421 17.805 22.027c1.573 3.327 5.094 4.841 8.2 5.521.007.007.02.007.033.013a24.977 24.977 0 0 0 3.455.481c.153.01.3.019.44.026v.02s.335.017.9.01.9-.01.9-.01v-.02c.141-.007.287-.016.44-.026a24.977 24.977 0 0 0 3.455-.481c.013-.006.026-.006.033-.013 3.108-.68 6.629-2.194 8.2-5.521 3.121-6.609 7.9-10.83 17.8-22.026s4.408-23.68 4.955-28.635c.433-3.894.867-4.728 2.007-10.423.314-1.554.68-3.474 1.114-5.915 2.029-11.38.742-18.535-9.534-18.901z" fill="#e1e6e9"/><path d="m113.721 42.432c0-2.326.127-3.987-1.31-5.927-1.9-2.568-4.036-4.309-7.436-3.911a16.879 16.879 0 0 0 -4.087 1.036 23.224 23.224 0 0 0 -5.829 4.218c-1.5 1.874-4.008 3.048-5.195 1.981a44.079 44.079 0 0 0 -6.422-.987 14.264 14.264 0 0 0 .5 6.081 17.354 17.354 0 0 1 .806 7.229c-.68 4.708-2.04 9.689-.8 14.431a33.412 33.412 0 0 1 1.435 6.017c.207 2.634-1.22 4.848-1.6 7.322-.683 4.452-.483 9.178-.483 13.778 0 2.507-.033 5.014 0 7.522.047 3.794 4.955 4.288 7.449 6.428a18.346 18.346 0 0 1 .454-8.489c1.12-3.294 3.634-6 4.834-9.169 1.267-3.341.707-7.2 1.521-10.69.453-1.96 2.22-3.647 2.227-5.768.007-1.8-.707-2.807-.053-4.694.64-1.848 1.8-3.5 2.534-5.335.6-1.514.04-3.441.666-4.8s2.675-.587 4.108-1.447a11.694 11.694 0 0 0 4.455-4.221c.222-.451.441-.94.65-1.45a11.222 11.222 0 0 0 1.432-4.162 34.727 34.727 0 0 0 .144-4.993z" fill="#64798a"/><path d="m66.218 79.926c-.381-2.474-1.808-4.688-1.6-7.322a33.412 33.412 0 0 1 1.434-6.021c1.24-4.742-.12-9.723-.8-14.431a17.354 17.354 0 0 1 .806-7.229 14.264 14.264 0 0 0 .5-6.081 44.079 44.079 0 0 0 -6.422.987c-1.187 1.067-3.695-.107-5.195-1.981a23.236 23.236 0 0 0 -5.828-4.218 16.9 16.9 0 0 0 -4.088-1.036c-3.4-.4-5.533 1.343-7.436 3.911-1.437 1.94-1.31 3.6-1.31 5.927a34.872 34.872 0 0 0 .142 4.995 11.222 11.222 0 0 0 1.432 4.162c.209.51.428 1 .65 1.45a11.694 11.694 0 0 0 4.455 4.221c1.433.86 3.481.08 4.108 1.447s.066 3.281.666 4.8c.734 1.84 1.894 3.487 2.534 5.335.654 1.887-.06 2.894-.053 4.694.007 2.121 1.774 3.808 2.227 5.768.814 3.495.254 7.349 1.521 10.69 1.2 3.168 3.714 5.875 4.834 9.169a18.346 18.346 0 0 1 .454 8.489c2.494-2.14 7.4-2.634 7.449-6.428.033-2.508 0-5.015 0-7.522.002-4.602.202-9.328-.48-13.776z" fill="#64798a"/><path d="m113.721 42.432c0-2.326.127-3.987-1.31-5.927-1.9-2.568-4.036-4.309-7.436-3.911a16.9 16.9 0 0 0 -4.088 1.036c-4.073 1.62-3.281 3.989-3.3 4.588a6.969 6.969 0 0 0 .94 3.389c.69 1.591.279 3.459.044 5.043-.6 4.047 4.082 7.668 7.7 7.842a21.981 21.981 0 0 0 2.515 0c1.172-.083 1.557-.626 2.31-1.461a10.491 10.491 0 0 0 2.489-5.6 34.872 34.872 0 0 0 .136-4.999z" fill="#3a556a" opacity=".5"/><path d="m36.279 42.432c0-2.326-.127-3.987 1.31-5.927 1.9-2.568 4.036-4.309 7.436-3.911a16.9 16.9 0 0 1 4.088 1.036c4.073 1.62 3.281 3.989 3.3 4.588a6.969 6.969 0 0 1 -.94 3.389c-.69 1.591-.279 3.459-.044 5.043.6 4.047-4.082 7.668-7.7 7.842a21.981 21.981 0 0 1 -2.515 0c-1.172-.083-1.557-.626-2.31-1.461a10.491 10.491 0 0 1 -2.489-5.6 34.872 34.872 0 0 1 -.136-4.999z" fill="#3a556a" opacity=".5"/><path d="m105.835 92.877c-9.909 11.2-14.684 15.417-17.8 22.026-1.573 3.327-5.094 4.841-8.2 5.521-.007.007-.02.007-.033.013a13.443 13.443 0 0 1 -3.521.554.854.854 0 0 0 .066-.073c.827-.947 2.328-1.287 3.8-1.954a12.417 12.417 0 0 0 4.447-3.7.007.007 0 0 0 .007-.007c.167-.207.34-.427.5-.64 1.821-2.414 3.254-5.042 4.975-7.476.173-.24.34-.48.52-.713a21.848 21.848 0 0 1 3.528-3.821c3.027-2.534 6.521-4.781 8.222-8.489 1.754-3.821 4.4-7.089 5.081-11.29a67.277 67.277 0 0 0 .474-10.836 32.563 32.563 0 0 1 1.554-11.01c.673-2.014 1.787-3.7 2.62-5.675.174-.413.447-.933.727-1.487-1.14 5.7-1.574 6.529-2.007 10.423-.552 4.957 4.956 17.437-4.96 28.634z" fill="#d5d6db"/><path d="m44.165 92.877c9.909 11.2 14.684 15.417 17.805 22.026 1.573 3.327 5.094 4.841 8.2 5.521.007.007.02.007.033.013a13.443 13.443 0 0 0 3.521.554.854.854 0 0 1 -.066-.073c-.827-.947-2.328-1.287-3.8-1.954a12.417 12.417 0 0 1 -4.447-3.7.007.007 0 0 1 -.007-.007c-.167-.207-.34-.427-.5-.64-1.821-2.414-3.254-5.042-4.975-7.476-.173-.24-.34-.48-.52-.713a21.848 21.848 0 0 0 -3.528-3.821c-3.027-2.534-6.521-4.781-8.222-8.489-1.754-3.821-4.4-7.089-5.081-11.29a67.277 67.277 0 0 1 -.478-10.837 32.563 32.563 0 0 0 -1.554-11.01c-.673-2.014-1.787-3.7-2.62-5.675-.174-.413-.447-.933-.727-1.487 1.14 5.7 1.574 6.529 2.007 10.423.551 4.958-4.957 17.438 4.959 28.635z" fill="#d5d6db"/><path d="m86.163 112.9a11.833 11.833 0 0 1 -.293 2.354.007.007 0 0 1 -.007.007 6.681 6.681 0 0 1 -4.761 5.161c-.007.007-.02.007-.034.013a13.436 13.436 0 0 1 -3.521.554 21.649 21.649 0 0 1 -2.173-.02 21.672 21.672 0 0 1 -2.174.02 13.436 13.436 0 0 1 -3.521-.554c-.014-.006-.027-.006-.034-.013a6.683 6.683 0 0 1 -4.761-5.161.007.007 0 0 1 -.007-.007 11.833 11.833 0 0 1 -.293-2.354 5.194 5.194 0 0 1 .86-3.047 8.719 8.719 0 0 1 2.728-2.575 13.452 13.452 0 0 1 14.4 0 8.726 8.726 0 0 1 2.727 2.575 5.194 5.194 0 0 1 .864 3.047z" fill="#3a556a"/><path d="m85.3 109.855a6.624 6.624 0 0 1 -4.2 3.534c-.007.006-.02.006-.034.013a13.478 13.478 0 0 1 -3.521.554 21.649 21.649 0 0 1 -2.173-.02 21.672 21.672 0 0 1 -2.174.02 13.478 13.478 0 0 1 -3.521-.554c-.014-.007-.027-.007-.034-.013a6.624 6.624 0 0 1 -4.2-3.534 8.719 8.719 0 0 1 2.728-2.575 13.452 13.452 0 0 1 14.4 0 8.726 8.726 0 0 1 2.729 2.575z" fill="#64798a" opacity=".5"/><circle cx="91.477" cy="81.67" fill="#3a556a" r="3.703"/><ellipse cx="91.477" cy="81.67" fill="#2f4859" rx="3.703" ry="2.822" transform="matrix(.961 -.275 .275 .961 -18.954 28.351)"/><circle cx="92.685" cy="80.816" fill="#64798a" r=".854"/><circle cx="59.497" cy="81.67" fill="#3a556a" r="3.703"/><ellipse cx="59.497" cy="81.67" fill="#2f4859" rx="2.822" ry="3.703" transform="matrix(.275 -.961 .961 .275 -35.4 116.374)"/><circle cx="58.288" cy="80.816" fill="#64798a" r=".854"/><g fill="#2f4859"><path d="m81.209 114.291a4.175 4.175 0 0 1 -1.7.442 1.065 1.065 0 0 0 -.947.615c-.518 1.117-1.22 3.252 1.127 2.991a4.019 4.019 0 0 0 2.945-2.687 1.05 1.05 0 0 0 -1.425-1.361z"/><path d="m69.538 114.291a4.175 4.175 0 0 0 1.7.442 1.065 1.065 0 0 1 .947.615c.518 1.117 1.22 3.252-1.127 2.991a4.019 4.019 0 0 1 -2.945-2.687 1.05 1.05 0 0 1 1.425-1.361z"/></g></svg>