<svg id="Capa_1" enable-background="new 0 0 512 512" height="512" viewBox="0 0 512 512" width="512" xmlns="http://www.w3.org/2000/svg"><g><g><g><g><g><g><circle cx="256" cy="256" fill="#ff6c52" r="256"/></g></g></g></g></g><path d="m271.983 511.509c133.94-8.251 240.017-119.492 240.017-255.509 0-30.265-5.252-59.303-14.894-86.252l-92.748-92.748-98.871 172.987-138.593-138.593 15.204 150.255-74.456 27.573 124.835 124.835-30.756 27.189z" fill="#f92814"/><g><g><path d="m226.147 212.748s-26.838-109.037-118.505-135.748c0 0 57.153 99.227 44.574 169.097z" fill="#707789"/></g><g><path d="m285.853 212.748s26.838-109.037 118.505-135.748c0 0-57.152 99.227-44.574 169.097z" fill="#555a66"/></g></g><g><path d="m160.376 229.458h-92.434s14.186 72.704 85.899 72.704z" fill="#afb4c8"/></g><g><path d="m351.624 229.458h92.434s-14.186 72.704-85.899 72.704z" fill="#7e8596"/></g><g><path d="m256 176.131c-71.541 0-129.536 30.525-129.536 97.752 0 62.186 49.656 172.68 113.721 188.921 5.194 1.317 19.474-3.316 19.474-3.316v-283.329c-1.215-.017-2.434-.028-3.659-.028z" fill="#fff"/></g><g><path d="m385.536 273.883c0-67.19-57.93-97.717-129.536-97.728v287.69s10.627.279 15.813-1.041c64.126-16.324 113.723-126.758 113.723-188.921z" fill="#e9edf5"/></g><g><path d="m256 372.704-20.847-20.847-22.364 22.364 27.397 27.398v61.186c5.183 1.395 10.461 2.133 15.814 2.133s10.631-.738 15.814-2.133v-61.186l27.397-27.398-22.364-22.364z" fill="#cdd2e1"/></g><g><path d="m276.847 351.856-20.847 20.848.121 92.232c5.312-.011 10.549-.746 15.693-2.131v-61.186l27.397-27.398z" fill="#afb4c8"/></g><g><g><ellipse cx="191.6" cy="296.389" fill="#636978" rx="14.228" ry="14.228" transform="matrix(.707 -.707 .707 .707 -153.46 222.292)"/></g><g><ellipse cx="320.4" cy="296.389" fill="#414952" rx="14.228" ry="14.228" transform="matrix(.23 -.973 .973 .23 -41.673 540.122)"/></g></g></g></svg>