<svg id="Capa_1" enable-background="new 0 0 512 512" height="512" viewBox="0 0 512 512" width="512" xmlns="http://www.w3.org/2000/svg"><g><g><g><g><g><g><g><g><g><circle cx="256" cy="256" fill="#fe6a16" r="256"/></g></g></g></g></g></g></g></g><path d="m512 256c0-22.038-2.785-43.425-8.021-63.83l-124.788-124.787-89.322 108.15-116.337-116.337-52.756 51.753 123.092 120.282-126.573 153.254 35.776 35.776-20.263 18.443 67.14 67.14c18.04 4.03 36.798 6.156 56.052 6.156 141.385 0 256-114.615 256-256z" fill="#f24500"/><g><path d="m304.913 101.839 43.201 43.201 39.128-30.238c11.779-9.103 12.888-26.48 2.362-37.007l-17.446-17.445c-10.527-10.527-27.904-9.417-37.007 2.362z" fill="#afb4c8"/></g><g><path d="m332.506 119.767c5.222 5.222 13.574 5.571 19.214.803l16.779-14.185c6.348-5.366 6.751-15.013.874-20.891l-2.594-2.594c-5.878-5.878-15.524-5.474-20.891.874l-14.185 16.779c-4.768 5.64-4.419 13.992.803 19.214z" fill="#dce1eb"/></g><g><path d="m207.087 101.839-43.201 43.201-39.128-30.238c-11.779-9.103-12.888-26.48-2.362-37.007l17.447-17.447c10.527-10.527 27.904-9.417 37.007 2.362z" fill="#cdd2e1"/></g><g><path d="m179.494 119.767c-5.222 5.222-13.574 5.571-19.214.803l-16.779-14.185c-6.348-5.366-6.751-15.013-.874-20.891l2.594-2.594c5.878-5.878 15.524-5.474 20.891.874l14.185 16.779c4.768 5.64 4.419 13.992-.803 19.214z" fill="#f2f6fc"/></g><g><g><path d="m132.809 383.972h71.623v54.733h-71.623z" fill="#fff"/></g><g><path d="m307.568 383.972h71.623v54.733h-71.623z" fill="#e9edf5"/></g></g><g><path d="m372.307 328.587h-232.614v-145.629c0-64.235 52.073-116.307 116.307-116.307 64.235 0 116.307 52.073 116.307 116.307z" fill="#dce1eb"/></g><g><path d="m372.307 182.958c0-64.195-52.008-116.241-116.187-116.306v261.935h116.187z" fill="#bec3d2"/></g><g><path d="m338.401 405.474h-164.802c-47.501 0-86.009-38.507-86.009-86.009 0-47.501 38.507-86.009 86.009-86.009h164.803c47.501 0 86.009 38.507 86.009 86.009-.001 47.501-38.508 86.009-86.01 86.009z" fill="#cdd2e1"/></g><g><path d="m338.401 233.456h-82.281v172.018h82.281c47.501 0 86.009-38.507 86.009-86.009 0-47.502-38.507-86.009-86.009-86.009z" fill="#afb4c8"/></g><g><g><circle cx="181.666" cy="299.592" fill="#7e8596" r="28.995"/></g><g><circle cx="330.334" cy="299.592" fill="#636978" r="28.995"/></g></g><g><g><circle cx="203.222" cy="197.619" fill="#7e8596" r="15.5"/></g><g><circle cx="308.778" cy="197.619" fill="#636978" r="15.5"/></g></g><g><g><circle cx="377.424" cy="342.596" fill="#9196aa" r="15.5"/></g></g><g><g><circle cx="338.467" cy="368.985" fill="#9196aa" r="15.5"/></g></g><g><g><circle cx="134.576" cy="342.596" fill="#bec3d2" r="15.5"/></g></g><g><g><circle cx="173.533" cy="368.985" fill="#bec3d2" r="15.5"/></g></g></g></svg>