<?xml version="1.0" encoding="iso-8859-1"?>
<!-- Generator: Adobe Illustrator 19.0.0, SVG Export Plug-In . SVG Version: 6.00 Build 0)  -->
<svg version="1.1" id="Layer_1" xmlns="http://www.w3.org/2000/svg" xmlns:xlink="http://www.w3.org/1999/xlink" x="0px" y="0px"
	 viewBox="0 0 512 512" style="enable-background:new 0 0 512 512;" xml:space="preserve">
<circle style="fill:#FF633E;" cx="255.996" cy="255.996" r="255.996"/>
<path style="fill:#FF3200;" d="M512,255.999c0-25.686-3.8-50.482-10.84-73.875L396.819,77.783
	c-13.742-18.294-44.003-16.572-43.679,5.886c0.245,16.149-3.837,25.866-7.766,31.459c-21.184-19.693-53.369-32.743-89.375-32.743
	c-26.825,0-51.525,7.247-71.14,19.084l-28.217-27.339c-8.425-15.179-38.527-10.662-46.277,12.922
	c-4.44,13.504-1.084,27.865,11.818,38.383c0,0,20.772,21.165,22.155,22.468c-1.335,3.753-2.343,7.585-2.978,11.479
	c-6.107,37.408-13.576,104.105-15.114,118.031C106,292.58,92.839,316.751,92.839,343.846v4.436
	c0,24.372,10.654,46.372,27.528,61.589l99.593,99.593c11.776,1.659,23.803,2.537,36.038,2.537C397.385,512,512,397.385,512,255.999z
	"/>
<path style="fill:#FFFFFF;" d="M211.896,459.753h-17.393c-6.896,0-12.539-5.642-12.539-12.539v-22.575h42.47v22.575
	C224.435,454.109,218.792,459.753,211.896,459.753z"/>
<path style="fill:#E1E1E3;" d="M317.497,459.753h-17.393c-6.896,0-12.539-5.642-12.539-12.539v-22.575h42.47v22.575
	C330.036,454.109,324.393,459.753,317.497,459.753z"/>
<path style="fill:#AEADB3;" d="M401.633,87.052c-9.079-27.63-48.865-29.114-48.493-3.382c0.245,16.149-3.837,25.866-7.766,31.459
	c-21.184-19.693-53.369-32.743-89.375-32.743s-68.191,13.051-89.375,32.743c-3.929-5.594-8.009-15.311-7.766-31.459
	c0.371-25.731-39.415-24.247-48.493,3.382c-6.657,20.247,4.18,42.436,38.504,50.679c-3.719,6.892-6.286,14.161-7.51,21.651
	c-6.844,41.92-15.399,120.628-15.399,120.628h260.076c0,0-8.556-78.707-15.4-120.628c-1.223-7.49-3.791-14.759-7.509-21.651
	C397.454,129.487,408.289,107.299,401.633,87.052z"/>
<path style="fill:#D8D8DA;" d="M149.999,103.507c-0.415-12.854-20.241-19.369-25.557-1.092c-2.97,10.194,9.774,24.659,27.989,29.356
	c1.877-2.849,3.956-5.62,6.223-8.302C154.534,120.802,150.373,115.21,149.999,103.507z"/>
<path style="fill:#8B8992;" d="M401.633,87.052c-9.079-27.63-48.865-29.114-48.493-3.382c0.245,16.149-3.837,25.866-7.766,31.459
	c-21.184-19.693-53.369-32.743-89.375-32.743v197.623h130.038c0,0-8.554-78.707-15.399-120.628
	c-1.223-7.49-3.791-14.759-7.509-21.651C397.454,129.487,408.289,107.299,401.633,87.052z"/>
<path style="fill:#C8C6CC;" d="M387.557,102.416c-5.314-18.278-25.142-11.763-25.556,1.092c-0.374,11.703-4.535,17.294-8.656,19.964
	c2.267,2.681,4.347,5.451,6.223,8.302C377.784,127.076,390.526,112.61,387.557,102.416z"/>
<circle style="fill:#3C3B41;" cx="209.405" cy="201.401" r="17.972"/>
<circle style="fill:#171719;" cx="302.598" cy="201.401" r="17.972"/>
<path style="fill:#D8D8DA;" d="M336.181,431.26H175.818c-45.638,0-82.978-37.34-82.978-82.978v-4.436
	c0-45.638,37.34-82.978,82.978-82.978h160.362c45.638,0,82.978,37.34,82.978,82.978v4.436
	C419.16,393.92,381.819,431.26,336.181,431.26z"/>
<path style="fill:#C8C6CC;" d="M419.16,348.281v-4.436c0-45.638-37.34-82.978-82.978-82.978h-80.181v170.393h80.181
	C381.819,431.26,419.16,393.92,419.16,348.281z"/>
<circle style="fill:#78777F;" cx="166.251" cy="316.84" r="21.096"/>
<circle style="fill:#57555C;" cx="345.752" cy="316.84" r="21.096"/>
<g>
</g>
<g>
</g>
<g>
</g>
<g>
</g>
<g>
</g>
<g>
</g>
<g>
</g>
<g>
</g>
<g>
</g>
<g>
</g>
<g>
</g>
<g>
</g>
<g>
</g>
<g>
</g>
<g>
</g>
</svg>
