<svg id="Capa_1" enable-background="new 0 0 512 512" height="512" viewBox="0 0 512 512" width="512" xmlns="http://www.w3.org/2000/svg"><g><g><g><g><g><g id="XMLID_1426_"><g id="XMLID_1427_"><g id="XMLID_1428_"><g id="XMLID_1429_"><g id="XMLID_1430_"><g id="XMLID_1431_"><g id="XMLID_1432_"><g id="XMLID_1433_"><g id="XMLID_1434_"><g id="XMLID_1435_"><g id="XMLID_1436_"><g id="XMLID_1437_"><g id="XMLID_1438_"><g id="XMLID_1454_"><circle id="XMLID_1455_" cx="256" cy="256" fill="#23af66" r="256"/></g></g></g></g></g></g></g></g></g></g></g></g></g></g></g></g></g></g><path d="m260.385 511.963c139.362-2.341 251.615-116.043 251.615-255.963 0-20.921-2.51-41.255-7.244-60.719l-50.713-50.713-391.901 85.379 115.479 115.479-35.678 48.094z" fill="#0e8750"/><g><g><ellipse cx="108.091" cy="183.837" fill="#ffd3ab" rx="65.097" ry="65.097" transform="matrix(.707 -.707 .707 .707 -98.333 130.277)"/><ellipse cx="402.123" cy="183.837" fill="#ffb985" rx="65.097" ry="65.097" transform="matrix(.707 -.707 .707 .707 -12.213 338.189)"/></g><path d="m375.007 262.894c0 87.608-119.9 176.96-119.9 176.96-95.713 0-173.303-89.352-173.303-176.96s63.723-158.629 173.303-158.629c0 0 119.9 71.021 119.9 158.629z" fill="#543b3b"/><g><g><g><path d="m428.411 262.894c0-87.37-63.377-158.242-172.411-158.626v335.584c95.302-.555 172.411-89.623 172.411-176.958z" fill="#442727"/></g></g></g><path d="m378.247 246.939c.775-39.161-30.756-72.026-69.917-72.797-12.421-.245-24.136 2.685-34.391 8.032-11.845 6.177-25.818 6.177-37.664 0-10.255-5.347-21.971-8.277-34.392-8.032-39.161.771-70.692 33.636-69.916 72.797.649 32.737 23.339 60.068 53.841 67.763v8.349c0 38.272 31.026 69.298 69.298 69.298 38.272 0 69.298-31.026 69.298-69.298v-8.349c30.504-7.694 53.194-35.026 53.843-67.763z" fill="#ffd3ab"/><g><path d="m308.33 174.143c-12.421-.244-24.137 2.685-34.391 8.032-5.65 2.946-11.783 4.487-17.939 4.623v205.546c37.861-.478 68.405-31.318 68.405-69.292v-8.349c30.502-7.695 53.193-35.027 53.841-67.764.776-39.161-30.755-72.025-69.916-72.796z" fill="#ffb985"/></g><g><circle cx="204.058" cy="236.301" fill="#494949" r="21.73"/><circle cx="306.156" cy="236.301" fill="#2d2d2d" r="21.73"/></g><g><path d="m244.671 283.239-21.751 20.37c-6.254 5.857-5.178 16.067 2.158 20.493 8.611 5.194 19.592-1.007 19.592-11.063v-29.8z" fill="#ffb985"/><path d="m265.544 283.239 21.751 20.37c6.254 5.857 5.178 16.067-2.158 20.493-8.611 5.194-19.592-1.007-19.592-11.063v-29.8z" fill="#f49160"/></g></g></g></svg>